<?xml version="1.0" encoding="UTF-8" standalone="no"?>
<!-- Created with Inkscape (http://www.inkscape.org/) -->

<svg
   xmlns:dc="http://purl.org/dc/elements/1.1/"
   xmlns:cc="http://creativecommons.org/ns#"
   xmlns:rdf="http://www.w3.org/1999/02/22-rdf-syntax-ns#"
   xmlns:svg="http://www.w3.org/2000/svg"
   xmlns="http://www.w3.org/2000/svg"
   xmlns:sodipodi="http://sodipodi.sourceforge.net/DTD/sodipodi-0.dtd"
   xmlns:inkscape="http://www.inkscape.org/namespaces/inkscape"
   width="64"
   height="64"
   id="svg3634"
   version="1.1"
   inkscape:version="0.48.5 r10040"
   sodipodi:docname="github.svg">
  <defs
     id="defs3636" />
  <sodipodi:namedview
     id="base"
     pagecolor="#ffffff"
     bordercolor="#666666"
     borderopacity="1.0"
     inkscape:pageopacity="0.0"
     inkscape:pageshadow="2"
     inkscape:zoom="0.35"
     inkscape:cx="10.999917"
     inkscape:cy="-184.0002"
     inkscape:document-units="px"
     inkscape:current-layer="layer1"
     showgrid="false"
     fit-margin-top="0"
     fit-margin-left="0"
     fit-margin-right="0"
     fit-margin-bottom="0"
     inkscape:window-width="1391"
     inkscape:window-height="876"
     inkscape:window-x="1449"
     inkscape:window-y="24"
     inkscape:window-maximized="1" />
  <metadata
     id="metadata3639">
    <rdf:RDF>
      <cc:Work
         rdf:about="">
        <dc:format>image/svg+xml</dc:format>
        <dc:type
           rdf:resource="http://purl.org/dc/dcmitype/StillImage" />
        <dc:title />
      </cc:Work>
    </rdf:RDF>
  </metadata>
  <g
     inkscape:label="Layer 1"
     inkscape:groupmode="layer"
     id="layer1"
     transform="translate(-364.00008,-284.36198)">
    <g
       transform="matrix(2,0,0,2,-445.51992,-952.54802)"
       id="g354">
      <path
         style="fill:#1d1d1b"
         inkscape:connector-curvature="0"
         d="m 420.76,618.455 c -8.837,0 -16,7.164 -16,16 0,8.841 7.163,16 16,16 8.836,0 16,-7.159 16,-16 0,-8.834 -7.164,-16 -16,-16 z m 8.355,20.707 c -0.562,1.136 -1.63,1.972 -2.704,2.408 -1.066,0.438 -2.65,0.688 -3.764,0.758 -0.55,0.033 -1.165,0.058 -1.837,0.058 -1.146,0 -1.957,-0.022 -3.177,-0.177 -1.231,-0.133 -2.188,-0.438 -3.188,-0.893 -1,-0.451 -1.794,-1.199 -2.271,-2.154 -0.45,-0.899 -0.688,-2.108 -0.688,-3.641 0,-1.736 0.493,-3.188 1.493,-4.354 -0.194,-0.604 -0.297,-1.224 -0.297,-1.867 0,-0.851 0.188,-1.646 0.562,-2.396 1.585,0 2.604,0.562 4.171,1.791 1.074,-0.252 2.219,-0.394 3.396,-0.394 1.09,0 2.111,0.121 3.08,0.354 1.539,-1.196 2.562,-1.762 4.133,-1.762 0.375,0.746 0.562,1.553 0.562,2.396 0,0.646 -0.104,1.254 -0.305,1.854 1,1.178 1.492,2.629 1.492,4.375 0.008,1.519 -0.207,2.732 -0.658,3.644 z"
         id="path356" />
      <path
         style="fill:#1d1d1b"
         inkscape:connector-curvature="0"
         d="m 424.512,634.289 c -0.297,0 -1.012,0.076 -2.146,0.229 -0.517,0.072 -1.1,0.121 -1.727,0.121 -0.627,0 -1.209,-0.049 -1.729,-0.121 -1.104,-0.149 -1.813,-0.229 -2.146,-0.229 -1.729,0 -2.812,1.408 -2.812,3.166 0,1.287 0.525,2.271 1.24,2.814 0.715,0.551 1.901,0.893 2.881,0.979 0.494,0.062 1.033,0.073 1.646,0.073 h 1.848 c 1.199,0 2.111,-0.073 3.179,-0.403 1.066,-0.328 1.771,-0.813 2.231,-1.791 0.229,-0.476 0.353,-1.028 0.353,-1.687 -0.007,-1.741 -1.094,-3.151 -2.818,-3.151 z m -6.586,4.907 c -0.23,0.252 -0.495,0.373 -0.812,0.373 -0.604,0 -1.089,-0.603 -1.268,-1.209 -0.104,-0.312 -0.146,-0.604 -0.146,-0.901 0,-0.58 0.162,-1.238 0.613,-1.732 0.227,-0.254 0.48,-0.373 0.792,-0.373 0.612,0 1.088,0.603 1.272,1.218 0.088,0.311 0.131,0.604 0.131,0.896 0.019,0.571 -0.145,1.233 -0.582,1.728 z m 7.036,0 c -0.231,0.252 -0.494,0.373 -0.812,0.373 -0.604,0 -1.091,-0.603 -1.268,-1.209 -0.104,-0.312 -0.146,-0.604 -0.146,-0.901 0,-0.58 0.166,-1.238 0.612,-1.732 0.225,-0.254 0.48,-0.373 0.794,-0.373 0.614,0 1.09,0.603 1.271,1.218 0.092,0.311 0.135,0.604 0.135,0.896 0.018,0.571 -0.148,1.233 -0.586,1.728 z"
         id="path358" />
    </g>
  </g>
</svg>
