<?xml version="1.0" encoding="UTF-8" standalone="no"?>
<!-- Created with Inkscape (http://www.inkscape.org/) -->

<svg
   xmlns:dc="http://purl.org/dc/elements/1.1/"
   xmlns:cc="http://creativecommons.org/ns#"
   xmlns:rdf="http://www.w3.org/1999/02/22-rdf-syntax-ns#"
   xmlns:svg="http://www.w3.org/2000/svg"
   xmlns="http://www.w3.org/2000/svg"
   xmlns:sodipodi="http://sodipodi.sourceforge.net/DTD/sodipodi-0.dtd"
   xmlns:inkscape="http://www.inkscape.org/namespaces/inkscape"
   id="svg2"
   version="1.1"
   inkscape:version="0.48.4 r9939"
   width="1155.9873"
   height="670.77081"
   xml:space="preserve"
   sodipodi:docname="HI_fontastic.ai-icon.svg"><metadata
     id="metadata8"><rdf:RDF><cc:Work
         rdf:about=""><dc:format>image/svg+xml</dc:format><dc:type
           rdf:resource="http://purl.org/dc/dcmitype/StillImage" /><dc:title></dc:title></cc:Work></rdf:RDF></metadata><defs
     id="defs6"><clipPath
       clipPathUnits="userSpaceOnUse"
       id="clipPath16"><path
         d="m 0,595.28 1260,0 L 1260,0 0,0 0,595.28 z"
         id="path18"
         inkscape:connector-curvature="0" /></clipPath><clipPath
       clipPathUnits="userSpaceOnUse"
       id="clipPath44"><path
         d="m 955.986,426.634 29.418,0 0,-57.576 -29.418,0 0,57.576 z"
         id="path46"
         inkscape:connector-curvature="0" /></clipPath><clipPath
       clipPathUnits="userSpaceOnUse"
       id="clipPath48"><path
         d="m 955.991,369.058 29.413,0 0,57.574 -29.413,0 0,-57.574 z"
         id="path50"
         inkscape:connector-curvature="0" /></clipPath></defs><sodipodi:namedview
     pagecolor="#ffffff"
     bordercolor="#666666"
     borderopacity="1"
     objecttolerance="10"
     gridtolerance="10"
     guidetolerance="10"
     inkscape:pageopacity="0"
     inkscape:pageshadow="2"
     inkscape:window-width="1351"
     inkscape:window-height="1026"
     id="namedview4"
     showgrid="false"
     inkscape:zoom="0.25"
     inkscape:cx="-329.82468"
     inkscape:cy="-198.06603"
     inkscape:window-x="1489"
     inkscape:window-y="24"
     inkscape:window-maximized="1"
     inkscape:current-layer="g14"
     fit-margin-top="0"
     fit-margin-left="0"
     fit-margin-right="0"
     fit-margin-bottom="0" /><g
     id="g10"
     inkscape:groupmode="layer"
     inkscape:label="HI_fontastic"
     transform="matrix(1.25,0,0,-1.25,-196.86521,711.04461)"><g
       id="g12"
       transform="translate(-0.76983382,-0.38491691)"><g
         id="g14"
         clip-path="url(#clipPath16)"><g
           id="g20"
           transform="translate(960.8555,436.9893)"
           style="fill:#f16822;fill-opacity:1"><path
             d="m 0,0 c 7.229,-3.724 13.607,-8.866 18.746,-15.078 24.923,88.468 -38.34,125.715 -38.34,125.715 l -9.019,-0.493 C 13.979,61.294 11.232,23.878 0,0"
             style="fill:#f16822;fill-opacity:1;fill-rule:nonzero;stroke:none"
             id="path22"
             inkscape:connector-curvature="0" /></g><g
           id="g24"
           transform="translate(923.2295,565.5132)"><path
             d="M 0,0 C 5.615,5.208 14.402,4.894 19.612,-0.721 24.828,-6.339 24.509,-15.12 18.897,-20.333 13.28,-25.552 4.499,-25.229 -0.717,-19.611 -5.937,-13.993 -5.61,-5.216 0,0"
             style="fill:#f16822;fill-opacity:1;fill-rule:nonzero;stroke:none"
             id="path26"
             inkscape:connector-curvature="0" /></g><g
           id="g28"
           transform="translate(959.8408,224.9316)"><path
             d="m 0,0 c -12.005,12.809 -36.437,13.402 -57.733,0.457 -23.473,-14.258 -34.18,-39.492 -23.937,-56.357 1.108,-1.804 2.441,-3.413 3.905,-4.89 -8.454,-1.942 -17.243,-3.007 -26.291,-3.007 -64.493,0 -116.777,52.285 -116.777,116.778 0,64.492 52.284,116.773 116.777,116.773 64.493,0 116.778,-52.281 116.778,-116.773 C 12.722,33.898 8.11,15.902 0,0 m -62.413,-56.125 c -1.797,1.493 -3.376,3.217 -4.601,5.245 -8.092,13.309 0.37,33.233 18.88,44.484 16.392,9.954 35.141,9.772 44.857,0.397 -13.353,-22.763 -34.182,-40.6 -59.136,-50.126 m 112.615,145.3 c -0.017,0 -0.044,-0.007 -0.058,-0.007 -4.1,17.543 -11.121,33.956 -20.506,48.721 2.46,6.534 3.822,13.613 3.822,21.009 0,33.015 -26.762,59.777 -59.766,59.777 -13.865,0 -26.609,-4.753 -36.737,-12.664 -13.085,3.495 -26.834,5.372 -41.013,5.372 -31.442,0 -60.717,-9.205 -85.357,-24.998 -4.021,2.456 -8.853,3.883 -14.063,3.883 -13.974,0 -25.305,-10.33 -25.305,-23.067 0,-4.412 1.377,-8.531 3.738,-12.034 -23.321,-27.58 -37.411,-63.231 -37.411,-102.186 -0.21,-2.732 -1.949,-25.393 -4.855,-30.03 0,0 18.011,-13.373 9.875,-33.702 0,0 9.092,-7.578 15.46,-14.207 5.245,-9.272 11.426,-17.959 18.373,-25.957 -2.941,-0.341 -5.18,-2.124 -5.18,-4.275 0,-2.414 2.775,-4.362 6.209,-4.362 2.144,0 4.043,0.769 5.151,1.927 10.143,-10.389 21.705,-19.394 34.368,-26.703 0.153,-11.205 9.267,-20.235 20.503,-20.235 5.398,0 10.295,2.097 13.954,5.502 9.041,-2.64 18.423,-4.509 28.058,-5.502 -0.232,1.22 -0.361,2.485 -0.361,3.782 0,11.562 9.374,20.937 20.944,20.937 11.562,0 20.937,-9.375 20.937,-20.937 0,-0.909 -0.08,-1.805 -0.196,-2.692 73.234,11.545 129.794,73.248 133.371,148.826 2.326,4.085 3.892,11.626 3.892,20.294 0,12.995 -3.511,23.528 -7.847,23.528"
             style="fill:#f16822;fill-opacity:1;fill-rule:nonzero;stroke:none"
             id="path30"
             inkscape:connector-curvature="0" /></g><g
           id="g32"
           transform="translate(793.3135,233.7852)"><path
             d="M 0,0 C 7.883,7.426 22.655,4.563 32.992,-6.39 43.331,-17.352 45.331,-32.261 37.448,-39.701 29.565,-47.135 14.802,-44.266 4.463,-33.305 -5.882,-22.344 -7.874,-7.434 0,0 m 41.911,-41.057 c 9.976,9.412 7.455,28.306 -5.651,42.194 -13.091,13.887 -31.804,17.518 -41.787,8.092 -9.991,-9.411 -7.455,-28.298 5.644,-42.193 13.098,-13.881 31.811,-17.518 41.794,-8.093"
             style="fill:#f16822;fill-opacity:1;fill-rule:nonzero;stroke:none"
             id="path34"
             inkscape:connector-curvature="0" /></g><g
           id="g36"
           transform="translate(854.8574,302.7832)"><path
             d="m 0,0 c -21.676,0 -39.244,17.572 -39.244,39.252 0,21.669 17.568,39.237 39.244,39.237 21.677,0 39.245,-17.568 39.245,-39.237 C 39.245,17.572 21.677,0 0,0 m -4.629,84.318 c -27.45,0 -49.713,-22.259 -49.713,-49.717 0,-27.457 22.263,-49.721 49.713,-49.721 27.465,0 49.721,22.264 49.721,49.721 0,27.458 -22.256,49.717 -49.721,49.717"
             style="fill:#f16822;fill-opacity:1;fill-rule:nonzero;stroke:none"
             id="path38"
             inkscape:connector-curvature="0" /></g><g
           id="g64"
           transform="translate(739.5723,476.9321)"><path
             d="m 0,0 c 0,2.782 -2.254,5.035 -5.027,5.035 -2.789,0 -5.036,-2.253 -5.036,-5.035 0,-2.782 2.247,-5.035 5.036,-5.035 C -2.254,-5.035 0,-2.782 0,0"
             style="fill:#f16822;fill-opacity:1;fill-rule:nonzero;stroke:none"
             id="path66"
             inkscape:connector-curvature="0" /></g><g
           id="g68"
           transform="translate(854.2207,476.9321)"><path
             d="m 0,0 c 0,-10.487 -8.491,-18.978 -18.975,-18.978 -10.483,0 -18.98,8.491 -18.98,18.978 0,10.483 8.497,18.974 18.98,18.974 C -8.491,18.974 0,10.483 0,0"
             style="fill:#f16822;fill-opacity:1;fill-rule:nonzero;stroke:none"
             id="path70"
             inkscape:connector-curvature="0" /></g><g
           id="g72"
           transform="translate(923.4805,494.6021)"><path
             d="m 0,0 c 0,-4.539 -3.688,-8.223 -8.237,-8.223 -4.543,0 -8.224,3.684 -8.224,8.223 0,4.546 3.681,8.229 8.224,8.229 C -3.688,8.229 0,4.546 0,0"
             style="fill:#f16822;fill-opacity:1;fill-rule:nonzero;stroke:none"
             id="path74"
             inkscape:connector-curvature="0" /></g><g
           id="g76"
           transform="translate(880.4463,462.6021)"><path
             d="m 0,0 c 0,-3.546 -2.869,-6.419 -6.419,-6.419 -3.543,0 -6.412,2.873 -6.412,6.419 0,3.542 2.869,6.412 6.412,6.412 C -2.869,6.412 0,3.542 0,0"
             style="fill:#f16822;fill-opacity:1;fill-rule:nonzero;stroke:none"
             id="path78"
             inkscape:connector-curvature="0" /></g><g
           id="g80"
           transform="translate(1079.8652,428.5664)"><path
             d="m 0,0 c 0,-3.546 -2.869,-6.419 -6.416,-6.419 -3.535,0 -6.416,2.873 -6.416,6.419 0,3.539 2.881,6.412 6.416,6.412 C -2.869,6.412 0,3.539 0,0"
             style="fill:#f16822;fill-opacity:1;fill-rule:nonzero;stroke:none"
             id="path82"
             inkscape:connector-curvature="0" /></g><g
           id="g84"
           transform="translate(1083.0518,380.3164)"><path
             d="m 0,0 c 0,-6.9 -5.597,-12.498 -12.501,-12.498 -6.911,0 -12.496,5.598 -12.496,12.498 0,6.908 5.585,12.504 12.496,12.504 C -5.597,12.504 0,6.908 0,0"
             style="fill:#f16822;fill-opacity:1;fill-rule:nonzero;stroke:none"
             id="path86"
             inkscape:connector-curvature="0" /></g><g
           id="g88"
           transform="translate(637.9219,347.8525)"><path
             d="m 0,0 c 0,-3.216 -2.594,-5.817 -5.811,-5.817 -3.209,0 -5.802,2.601 -5.802,5.817 0,3.195 2.593,5.8 5.802,5.8 C -2.594,5.8 0,3.195 0,0"
             style="fill:#f16822;fill-opacity:1;fill-rule:nonzero;stroke:none"
             id="path90"
             inkscape:connector-curvature="0" /></g><g
           id="g92"
           transform="translate(1050.0488,275.9053)"><path
             d="m 0,0 c 0,-3.542 -2.876,-6.411 -6.419,-6.411 -3.542,0 -6.411,2.869 -6.411,6.411 0,3.543 2.869,6.419 6.411,6.419 C -2.876,6.419 0,3.543 0,0"
             style="fill:#f16822;fill-opacity:1;fill-rule:nonzero;stroke:none"
             id="path94"
             inkscape:connector-curvature="0" /></g><g
           id="g96"
           transform="translate(703.001,119.4268)"><path
             d="m 0,0 c 0,-1.829 -1.485,-3.325 -3.325,-3.325 -1.825,0 -3.312,1.496 -3.312,3.325 0,1.826 1.487,3.314 3.312,3.314 C -1.485,3.314 0,1.826 0,0"
             style="fill:#f16822;fill-opacity:1;fill-rule:nonzero;stroke:none"
             id="path98"
             inkscape:connector-curvature="0" /></g><g
           id="g100"
           transform="translate(769.8262,89.2373)"><path
             d="m 0,0 c 0,-1.82 -1.485,-3.317 -3.318,-3.317 -1.832,0 -3.311,1.497 -3.311,3.317 0,1.833 1.479,3.326 3.311,3.326 C -1.485,3.326 0,1.833 0,0"
             style="fill:#f16822;fill-opacity:1;fill-rule:nonzero;stroke:none"
             id="path102"
             inkscape:connector-curvature="0" /></g><g
           id="g104"
           transform="translate(807.0137,95.4395)"><path
             d="m 0,0 c 0,-1.837 -1.485,-3.318 -3.325,-3.318 -1.825,0 -3.311,1.481 -3.311,3.318 0,1.826 1.486,3.312 3.311,3.312 C -1.485,3.312 0,1.826 0,0"
             style="fill:#f16822;fill-opacity:1;fill-rule:nonzero;stroke:none"
             id="path106"
             inkscape:connector-curvature="0" /></g><g
           id="g108"
           transform="translate(755.1123,121.7783)"><path
             d="m 0,0 c 0,-1.83 -1.485,-3.314 -3.318,-3.314 -1.832,0 -3.319,1.484 -3.319,3.314 0,1.829 1.487,3.313 3.319,3.313 C -1.485,3.313 0,1.829 0,0"
             style="fill:#f16822;fill-opacity:1;fill-rule:nonzero;stroke:none"
             id="path110"
             inkscape:connector-curvature="0" /></g><g
           id="g112"
           transform="translate(693.1338,367.5659)"><path
             d="m 0,0 c 0,-1.833 -1.479,-3.322 -3.318,-3.322 -1.826,0 -3.311,1.489 -3.311,3.322 0,1.825 1.485,3.311 3.311,3.311 C -1.479,3.311 0,1.825 0,0"
             style="fill:#f16822;fill-opacity:1;fill-rule:nonzero;stroke:none"
             id="path114"
             inkscape:connector-curvature="0" /></g><g
           id="g116"
           transform="translate(670.8926,338.8984)"><path
             d="m 0,0 c 0,-1.826 -1.492,-3.314 -3.325,-3.314 -1.825,0 -3.312,1.488 -3.312,3.314 0,1.833 1.487,3.322 3.312,3.322 C -1.492,3.322 0,1.833 0,0"
             style="fill:#f16822;fill-opacity:1;fill-rule:nonzero;stroke:none"
             id="path118"
             inkscape:connector-curvature="0" /></g><g
           id="g120"
           transform="translate(680.7383,323.9673)"><path
             d="m 0,0 c 0,-1.833 -1.479,-3.318 -3.318,-3.318 -1.826,0 -3.311,1.485 -3.311,3.318 0,1.825 1.485,3.311 3.311,3.311 C -1.479,3.311 0,1.825 0,0"
             style="fill:#f16822;fill-opacity:1;fill-rule:nonzero;stroke:none"
             id="path122"
             inkscape:connector-curvature="0" /></g><g
           id="g124"
           transform="translate(952.4336,115.0225)"><path
             d="m 0,0 c 0,-1.83 -1.485,-3.318 -3.318,-3.318 -1.832,0 -3.311,1.488 -3.311,3.318 0,1.833 1.479,3.31 3.311,3.31 C -1.485,3.31 0,1.833 0,0"
             style="fill:#f16822;fill-opacity:1;fill-rule:nonzero;stroke:none"
             id="path126"
             inkscape:connector-curvature="0" /></g><g
           id="g128"
           transform="translate(935.6104,92.5596)"><path
             d="m 0,0 c 0,-1.833 -1.488,-3.325 -3.318,-3.325 -1.836,0 -3.314,1.492 -3.314,3.325 0,1.829 1.478,3.314 3.314,3.314 C -1.488,3.314 0,1.829 0,0"
             style="fill:#f16822;fill-opacity:1;fill-rule:nonzero;stroke:none"
             id="path130"
             inkscape:connector-curvature="0" /></g><g
           id="g132"
           transform="translate(894.7617,108.8242)"><path
             d="m 0,0 c 0,-1.833 -1.479,-3.311 -3.311,-3.311 -1.833,0 -3.318,1.478 -3.318,3.311 0,1.833 1.485,3.311 3.318,3.311 C -1.479,3.311 0,1.833 0,0"
             style="fill:#f16822;fill-opacity:1;fill-rule:nonzero;stroke:none"
             id="path134"
             inkscape:connector-curvature="0" /></g><g
           id="g136"
           transform="translate(982.8867,209.8193)"><path
             d="m 0,0 c 0,-3.362 -2.729,-6.1 -6.108,-6.1 -3.361,0 -6.092,2.738 -6.092,6.1 0,3.376 2.731,6.1 6.092,6.1 C -2.729,6.1 0,3.376 0,0"
             style="fill:#f16822;fill-opacity:1;fill-rule:nonzero;stroke:none"
             id="path138"
             inkscape:connector-curvature="0" /></g><path
           inkscape:connector-curvature="0"
           id="path142"
           style="fill:#f16822;fill-opacity:1;fill-rule:nonzero;stroke:none"
           d="m 605.81289,313.3394 c 0,0 -81.05429,-112.331 84.98444,-36.409 0,0 0.78116,-22.462 -4.7235,-29.438 0,0 22.82011,-20.149 7.87454,-35.637 l 20.45023,-17.04 13.3863,-17.04 c 0,0 -223.48568,28.66 -121.97201,135.564" /><g
           id="g144"
           transform="translate(650.7012,263.6982)"><path
             d="m 0,0 0,95.55 c 0,17.431 14.127,31.552 31.544,31.552 l 41.911,0 c -0.022,0.441 -0.073,0.883 -0.073,1.333 0,16.561 14.482,30.043 32.282,30.043 4.79,0 9.462,-0.978 13.736,-2.847 6.927,4.202 14.121,7.861 21.525,10.983 l -140.91,0 c -21.821,0 -39.527,-17.695 -39.527,-39.534 l 0,-136.636 C -29.645,-9.106 -16.431,-5.904 0,0"
             style="fill:#f16822;fill-opacity:1;fill-rule:nonzero;stroke:none"
             id="path146"
             inkscape:connector-curvature="0" /></g><g
           id="g148"
           transform="translate(981.1113,109.4727)"><path
             d="m 0,0 c 15.271,23.4 20.206,45.743 21.67,54.828 l 0,38.078 C 11.827,73.83 -1.626,56.842 -17.833,42.91 l 0,-42.606 c 0,-17.424 -14.126,-31.554 -31.551,-31.554 l -249.482,0 c -17.424,0 -31.544,14.13 -31.544,31.554 l 0,12.994 0,4.89 0,65.401 c -13.916,5.072 -27.726,11.353 -39.512,19.032 l 0,-103.628 0,-13.975 0,-16.253 c 0,-21.826 17.706,-39.528 39.526,-39.528 l 205.99,0 C -53.915,-61.54 -17.876,-27.381 0,0"
             style="fill:#f16822;fill-opacity:1;fill-rule:nonzero;stroke:none"
             id="path150"
             inkscape:connector-curvature="0" /></g><g
           id="g152"
           transform="translate(956.6787,41.4082)"><path
             d="m 0,0 c -1.949,-0.981 -3.981,-1.865 -6.057,-2.702 l 12.635,0 c 21.832,0 39.525,17.706 39.525,39.531 l 0,20.927 C 36.76,32.848 20.865,10.433 0,0"
             style="fill:#f16822;fill-opacity:1;fill-rule:nonzero;stroke:none"
             id="path154"
             inkscape:connector-curvature="0" /></g><g
           id="g156"
           transform="translate(764.5889,102.5762)"><path
             d="M 0,0 C -0.616,3.629 -8.253,5.915 -17.337,5.1 -26.415,4.292 -33.529,0.691 -33.485,-2.992 L 0,0 z"
             style="fill:#f16822;fill-opacity:1;fill-rule:nonzero;stroke:none"
             id="path158"
             inkscape:connector-curvature="0" /></g><g
           id="g160"
           transform="translate(752.8301,107.3066)"><path
             d="M 0,0 C -0.355,2.811 -3.072,4.85 -6.165,4.567 -9.266,4.3 -11.584,1.811 -11.417,-1.025 L 0,0 z"
             style="fill:#f16822;fill-opacity:1;fill-rule:nonzero;stroke:none"
             id="path162"
             inkscape:connector-curvature="0" /></g><g
           id="g164"
           transform="translate(733.8271,103.3184)"><path
             d="m 0,0 c 0.479,-2.808 6.63,-4.532 13.946,-3.887 7.318,0.663 13.071,3.452 13.041,6.303 L 0,0 z"
             style="fill:#f16822;fill-opacity:1;fill-rule:nonzero;stroke:none"
             id="path166"
             inkscape:connector-curvature="0" /></g><g
           id="g168"
           transform="translate(741.5508,106.6182)"><path
             d="m 0,0 c 0,0 2.621,0.746 5.332,1.032 1.355,0.196 2.723,0.099 3.745,0.123 1.014,0.004 1.694,0.008 1.694,0.008 0,0 -0.68,-0.029 -1.694,-0.076 C 8.063,1.011 6.701,1.051 5.36,0.805 2.65,0.635 0,0 0,0"
             style="fill:#ffffff;fill-opacity:1;fill-rule:nonzero;stroke:none"
             id="path170"
             inkscape:connector-curvature="0" /></g><g
           id="g172"
           transform="translate(735.3057,100.2969)"><path
             d="M 0,0 C 0,0 0.058,0.702 0.478,1.682 0.76,2.127 1,2.709 1.47,3.185 c 0.399,0.539 0.942,0.993 1.522,1.408 0.543,0.468 1.232,0.681 1.819,0.978 0.586,0.316 1.18,0.475 1.695,0.594 1.007,0.269 1.687,0.449 1.687,0.449 0,0 -0.666,-0.206 -1.666,-0.517 C 6.021,5.952 5.434,5.774 4.867,5.438 4.303,5.122 3.629,4.876 3.122,4.401 2.543,4.021 1.992,3.598 1.586,3.087 1.101,2.645 0.841,2.08 0.543,1.652 0.087,0.702 0,0 0,0"
             style="fill:#ffffff;fill-opacity:1;fill-rule:nonzero;stroke:none"
             id="path174"
             inkscape:connector-curvature="0" /></g><g
           id="g176"
           transform="translate(759.126,102.3369)"><path
             d="M 0,0 C 0,0 -0.188,0.674 -0.79,1.507 -1.137,1.883 -1.5,2.364 -2.036,2.724 -2.507,3.154 -3.122,3.452 -3.73,3.752 -4.304,4.14 -4.991,4.26 -5.578,4.499 -6.18,4.749 -6.774,4.84 -7.28,4.923 -8.288,5.1 -8.969,5.219 -8.969,5.219 c 0,0 0.681,-0.09 1.702,-0.228 0.515,-0.062 1.117,-0.124 1.725,-0.347 0.608,-0.221 1.318,-0.312 1.912,-0.685 0.609,-0.33 1.225,-0.663 1.688,-1.123 0.53,-0.388 0.877,-0.892 1.211,-1.29 C -0.159,0.681 0,0 0,0"
             style="fill:#ffffff;fill-opacity:1;fill-rule:nonzero;stroke:none"
             id="path178"
             inkscape:connector-curvature="0" /></g><g
           id="g180"
           transform="translate(738.1016,100.3408)"><path
             d="m 0,0 c 0,0 4.761,0.467 9.52,0.931 l 9.542,0.703 c 0,0 -4.76,-0.468 -9.521,-0.932 L 0,0 z"
             style="fill:#ffffff;fill-opacity:1;fill-rule:nonzero;stroke:none"
             id="path182"
             inkscape:connector-curvature="0" /></g><g
           id="g184"
           transform="translate(179.5103,361.77)"><path
             d="m 0,0 0.674,-13.497 c 0.406,-7.422 2.427,-9.592 7.158,-9.592 l 2.158,0 0,-12.142 -7.563,0 c -8.367,0 -14.308,4.723 -14.99,14.982 l -1.071,18.09 c -0.406,6.227 -1.761,8.111 -7.434,8.111 l 0,12.152 c 5.673,0 7.028,1.888 7.434,8.1 l 1.071,18.098 c 0.682,10.258 6.623,14.989 14.99,14.989 l 7.563,0 0,-12.15 -2.158,0 c -4.731,0 -6.752,-2.166 -7.158,-9.592 L 0,24.038 C -0.275,19.046 -1.891,13.779 -8.773,12.019 -1.891,10.276 -0.275,5.013 0,0"
             style="fill:#f16822;fill-opacity:1;fill-rule:nonzero;stroke:none"
             id="path186"
             inkscape:connector-curvature="0" /></g><g
           id="g188"
           transform="translate(211.9307,326.5391)"><path
             d="m 0,0 -14.852,0 0,94.522 14.852,0 0,-40.517 16.88,0 0,40.517 15.135,0 0,-94.522 -15.135,0 0,40.498 L 0,40.498 0,0 z"
             style="fill:#f16822;fill-opacity:1;fill-rule:nonzero;stroke:none"
             id="path190"
             inkscape:connector-curvature="0" /></g><g
           id="g192"
           transform="translate(268.9536,356.5029)"><path
             d="M 0,0 14.316,0 7.165,47.815 0,0 z m 33.891,-29.964 -14.99,0 -2.557,17.148 -18.235,0 -2.571,-17.148 -13.635,0 15.127,94.522 21.734,0 15.127,-94.522 z"
             style="fill:#f16822;fill-opacity:1;fill-rule:nonzero;stroke:none"
             id="path194"
             inkscape:connector-curvature="0" /></g><g
           id="g196"
           transform="translate(309.7559,421.061)"><path
             d="m 0,0 14.852,0 0,-81.025 24.444,0 0,-13.494 L 0,-94.519 0,0 z"
             style="fill:#f16822;fill-opacity:1;fill-rule:nonzero;stroke:none"
             id="path198"
             inkscape:connector-curvature="0" /></g><g
           id="g200"
           transform="translate(355.5571,421.061)"><path
             d="m 0,0 14.852,0 0,-81.025 24.451,0 0,-13.494 L 0,-94.519 0,0 z"
             style="fill:#f16822;fill-opacity:1;fill-rule:nonzero;stroke:none"
             id="path202"
             inkscape:connector-curvature="0" /></g><g
           id="g204"
           transform="translate(416.2246,381.2295)"><path
             d="m 0,0 20.394,0 0,-13.508 -20.394,0 0,-27.682 25.66,0 0,-13.5 -40.519,0 0,94.522 40.519,0 0,-13.501 L 0,26.331 0,0 z"
             style="fill:#f16822;fill-opacity:1;fill-rule:nonzero;stroke:none"
             id="path206"
             inkscape:connector-curvature="0" /></g><g
           id="g208"
           transform="translate(464.9961,357.8579)"><path
             d="m 0,0 -18.771,63.203 15.533,0 11.351,-43.085 11.338,43.085 14.171,0 L 14.852,0 l 0,-31.315 L 0,-31.315 0,0 z"
             style="fill:#f16822;fill-opacity:1;fill-rule:nonzero;stroke:none"
             id="path210"
             inkscape:connector-curvature="0" /></g><path
           d="m 158.262,306.051 22.205,0 0,-141.358 -22.205,0 0,141.358 z"
           style="fill:#f16822;fill-opacity:1;fill-rule:nonzero;stroke:none"
           id="path212"
           inkscape:connector-curvature="0" /><g
           id="g214"
           transform="translate(216.4585,267.082)"><path
             d="m 0,0 0,-102.39 -20.01,0 0,141.359 27.878,0 22.82,-84.619 0,84.619 19.786,0 0,-141.359 -22.814,0 L 0,0 z"
             style="fill:#f16822;fill-opacity:1;fill-rule:nonzero;stroke:none"
             id="path216"
             inkscape:connector-curvature="0" /></g><g
           id="g218"
           transform="translate(276.4736,306.0508)"><path
             d="m 0,0 68.673,0 0,-20.194 -23.227,0 0,-121.164 -22.213,0 0,121.164 L 0,-20.194 0,0 z"
             style="fill:#f16822;fill-opacity:1;fill-rule:nonzero;stroke:none"
             id="path220"
             inkscape:connector-curvature="0" /></g><g
           id="g222"
           transform="translate(377.0811,246.4629)"><path
             d="m 0,0 30.493,0 0,-20.184 -30.493,0 0,-41.404 38.369,0 0,-20.183 -60.596,0 0,141.355 60.596,0 0,-20.194 L 0,39.39 0,0 z"
             style="fill:#f16822;fill-opacity:1;fill-rule:nonzero;stroke:none"
             id="path224"
             inkscape:connector-curvature="0" /></g><g
           id="g226"
           transform="translate(451.4268,285.8525)"><path
             d="m 0,0 0,-43.418 8.693,0 c 8.274,0 13.33,3.63 13.33,14.946 l 0,13.953 C 22.023,-4.427 18.583,0 10.708,0 L 0,0 z m 24.241,-121.16 c -1.211,3.629 -2.014,5.853 -2.014,17.357 l 0,22.221 c 0,13.112 -4.456,17.974 -14.54,17.974 l -7.687,0 0,-57.552 -22.213,0 0,141.355 33.536,0 c 23.016,0 32.92,-10.701 32.92,-32.508 l 0,-11.124 c 0,-14.533 -4.666,-24.008 -14.547,-28.667 11.106,-4.629 14.736,-15.336 14.736,-30.087 l 0,-21.799 c 0,-6.883 0.202,-11.926 2.426,-17.17 l -22.617,0 z"
             style="fill:#f16822;fill-opacity:1;fill-rule:nonzero;stroke:none"
             id="path228"
             inkscape:connector-curvature="0" /></g><g
           id="g230"
           transform="translate(177.9165,75.1104)"><path
             d="M 0,0 15.395,0 7.708,51.434 0,0 z m 36.456,-32.264 -16.12,0 -2.76,18.452 -19.612,0 -2.76,-18.452 -14.678,0 16.279,101.716 23.394,0 16.257,-101.716 z"
             style="fill:#f16822;fill-opacity:1;fill-rule:nonzero;stroke:none"
             id="path232"
             inkscape:connector-curvature="0" /></g><g
           id="g234"
           transform="translate(268.0264,80.7725)"><path
             d="m 0,0 0,-13.515 c 0,-16.267 -8.129,-25.562 -23.821,-25.562 -15.699,0 -23.835,9.295 -23.835,25.562 l 0,52.902 c 0,16.259 8.136,25.566 23.835,25.566 C -8.129,64.953 0,55.646 0,39.387 l 0,-9.887 -15.105,0 0,10.894 c 0,7.269 -3.188,10.03 -8.281,10.03 -5.086,0 -8.281,-2.761 -8.281,-10.03 l 0,-54.919 c 0,-7.271 3.195,-9.885 8.281,-9.885 5.093,0 8.281,2.614 8.281,9.885 L -15.105,0 0,0 z"
             style="fill:#f16822;fill-opacity:1;fill-rule:nonzero;stroke:none"
             id="path236"
             inkscape:connector-curvature="0" /></g><g
           id="g238"
           transform="translate(273.1411,144.5625)"><path
             d="m 0,0 49.409,0 0,-14.533 -16.706,0 0,-87.183 -15.975,0 0,87.183 L 0,-14.533 0,0 z"
             style="fill:#f16822;fill-opacity:1;fill-rule:nonzero;stroke:none"
             id="path240"
             inkscape:connector-curvature="0" /></g><path
           d="m 329.548,144.563 15.975,0 0,-101.716 -15.975,0 0,101.716 z"
           style="fill:#f16822;fill-opacity:1;fill-rule:nonzero;stroke:none"
           id="path242"
           inkscape:connector-curvature="0" /><g
           id="g244"
           transform="translate(381.2832,61.5957)"><path
             d="m 0,0 12.214,82.967 14.664,0 -15.685,-101.716 -23.835,0 -15.692,101.716 16.134,0 L 0,0 z"
             style="fill:#f16822;fill-opacity:1;fill-rule:nonzero;stroke:none"
             id="path246"
             inkscape:connector-curvature="0" /></g><g
           id="g248"
           transform="translate(431.5898,101.6914)"><path
             d="m 0,0 21.952,0 0,-14.521 -21.952,0 0,-29.788 27.609,0 0,-14.536 -43.583,0 0,101.716 43.583,0 0,-14.533 L 0,28.338 0,0 z"
             style="fill:#f16822;fill-opacity:1;fill-rule:nonzero;stroke:none"
             id="path250"
             inkscape:connector-curvature="0" /></g><g
           id="g252"
           transform="translate(476.3701,106.6318)"><path
             d="m 0,0 -0.718,14.534 c -0.441,7.991 -2.615,10.33 -7.708,10.33 l -2.318,0 0,13.067 8.129,0 c 9.026,0 15.401,-5.09 16.134,-16.127 l 1.166,-19.47 c 0.442,-6.684 1.877,-8.724 7.991,-8.724 l 0,-13.072 c -6.114,0 -7.549,-2.032 -7.991,-8.712 l -1.166,-19.481 c -0.733,-11.044 -7.108,-16.13 -16.134,-16.13 l -8.129,0 0,13.073 2.318,0 c 5.093,0 7.267,2.34 7.708,10.327 L 0,-25.859 c 0.297,5.38 2.036,11.055 9.447,12.924 C 2.036,-11.037 0.297,-5.367 0,0"
             style="fill:#f16822;fill-opacity:1;fill-rule:nonzero;stroke:none"
             id="path254"
             inkscape:connector-curvature="0" /></g><path
           d="m 556.209,39.499 -12.78,0 0,382.924 12.78,0 0,-382.924 z"
           style="fill:#f16822;fill-opacity:1;fill-rule:nonzero;stroke:none"
           id="path256"
           inkscape:connector-curvature="0" /><g
           id="g258"
           transform="translate(715.5488,137.7236)"><path
             d="m 0,0 c 0,0 -0.152,0.17 -0.449,0.503 -0.153,0.163 -0.32,0.388 -0.499,0.652 -0.197,0.257 -0.393,0.569 -0.587,0.939 -0.4,0.723 -0.819,1.662 -1.022,2.803 -0.218,1.13 -0.26,2.467 0.014,3.873 0.298,1.412 0.92,2.861 1.964,4.166 1.028,1.282 2.471,2.389 4.173,3.028 0.847,0.34 1.754,0.528 2.695,0.63 0.934,0.065 1.884,-0.014 2.825,-0.196 0.949,-0.21 1.862,-0.557 2.717,-1.014 0.847,-0.479 1.645,-1.109 2.318,-1.776 0.666,-0.73 1.239,-1.52 1.681,-2.397 0.42,-0.877 0.746,-1.789 0.913,-2.746 C 16.888,7.52 16.925,6.561 16.829,5.625 16.692,4.69 16.461,3.785 16.105,2.952 15.729,2.122 15.301,1.34 14.729,0.666 14.461,0.309 14.156,0.021 13.874,-0.283 13.555,-0.58 13.236,-0.841 12.903,-1.094 11.57,-2.076 10.084,-2.648 8.672,-2.884 7.26,-3.108 5.926,-3.018 4.803,-2.75 3.673,-2.504 2.739,-2.04 2.036,-1.627 1.674,-1.409 1.369,-1.207 1.115,-0.996 0.862,-0.809 0.645,-0.635 0.492,-0.468 0.174,-0.17 0,0 0,0 m 0,0 c 0,0 0.174,-0.163 0.501,-0.468 0.151,-0.155 0.361,-0.326 0.637,-0.513 0.246,-0.207 0.557,-0.407 0.913,-0.617 0.717,-0.413 1.63,-0.847 2.766,-1.087 1.118,-0.242 2.443,-0.336 3.826,-0.061 1.384,0.279 2.819,0.884 4.086,1.876 0.305,0.258 0.624,0.53 0.905,0.812 0.276,0.308 0.58,0.612 0.812,0.959 0.514,0.649 0.912,1.424 1.239,2.221 0.326,0.808 0.507,1.677 0.601,2.554 0.087,0.891 0.044,1.797 -0.108,2.684 -0.174,0.895 -0.486,1.757 -0.891,2.576 -0.421,0.811 -0.978,1.549 -1.601,2.223 -0.66,0.66 -1.355,1.225 -2.16,1.689 -0.797,0.435 -1.644,0.775 -2.535,0.978 C 7.223,16.217 5.39,16.116 3.738,15.551 2.101,14.979 0.688,13.972 -0.369,12.746 -1.391,11.529 -2.072,10.109 -2.397,8.747 -2.724,7.364 -2.688,6.038 -2.491,4.912 -2.289,3.771 -1.891,2.832 -1.507,2.104 -1.318,1.741 -1.13,1.424 -0.928,1.163 -0.754,0.901 -0.594,0.674 -0.441,0.511 -0.152,0.174 0,0 0,0"
             style="fill:#f16822;fill-opacity:1;fill-rule:nonzero;stroke:none"
             id="path260"
             inkscape:connector-curvature="0" /></g><g
           id="g262"
           transform="translate(723.3232,137.4922)"><path
             d="m 0,0 c 0,4.184 -3.392,7.566 -7.578,7.566 -4.173,0 -7.571,-3.382 -7.571,-7.566 0,-4.191 3.398,-7.578 7.571,-7.578 C -3.392,-7.578 0,-4.191 0,0"
             style="fill:#f16822;fill-opacity:1;fill-rule:nonzero;stroke:none"
             id="path264"
             inkscape:connector-curvature="0" /></g><g
           id="g266"
           transform="translate(723.4893,383.8301)"><path
             d="m 0,0 c -12.809,5.673 -61.29,-8.404 -68.165,-20.919 l -0.349,-0.638 C -59.219,-12.236 -12.925,1.398 0,0"
             style="fill:#f16822;fill-opacity:1;fill-rule:nonzero;stroke:none"
             id="path268"
             inkscape:connector-curvature="0" /></g><g
           id="g270"
           transform="translate(1006.834,168.2783)"><path
             d="m 0,0 c 0,0 -9.302,-117.361 -154.549,-133.633 l 4.066,0 c 0,0 61.587,-8.719 98.766,9.882 C -12.889,-104.335 8.712,-39.514 0,0"
             style="fill:#f16822;fill-opacity:1;fill-rule:nonzero;stroke:none"
             id="path272"
             inkscape:connector-curvature="0" /></g></g></g></g></svg>